<svg viewBox="0 0 608 723" fill="none" xmlns="http://www.w3.org/2000/svg">
<path d="M446.857 400C533.645 400 604 470.355 604 557.143C604 643.93 533.645 714.286 446.857 714.286C360.07 714.286 289.714 643.93 289.714 557.143C289.714 470.355 360.07 400 446.857 400ZM289.714 0C350.92 0 400.888 48.1134 403.86 108.582L404 114.286H546.857C562.637 114.286 575.429 127.078 575.429 142.857C575.429 157.51 564.399 169.586 550.189 171.236L546.857 171.429H522.6L505.621 380.917C487.152 374.762 467.394 371.429 446.857 371.429C344.29 371.429 261.143 454.576 261.143 557.143C261.143 607.054 280.832 652.367 312.867 685.738L197.331 685.714C141.516 685.714 95.0499 642.864 90.5391 587.23L56.8 171.429H32.5714C17.919 171.429 5.84265 160.399 4.19222 146.189L4 142.857C4 128.205 15.0297 116.128 29.2394 114.478L32.5714 114.286H175.429C175.429 51.1675 226.596 0 289.714 0ZM396.312 486.404L394.333 484.751C389.461 481.376 382.959 481.376 378.087 484.751L376.109 486.404L374.456 488.382C371.081 493.254 371.081 499.757 374.456 504.628L376.109 506.607L426.667 557.163L376.183 607.643L374.529 609.621C371.155 614.493 371.155 620.995 374.529 625.867L376.183 627.846L378.161 629.499C383.033 632.874 389.535 632.874 394.407 629.499L396.386 627.846L446.867 577.363L497.411 627.91L499.39 629.563C504.261 632.938 510.764 632.938 515.636 629.563L517.614 627.91L519.267 625.931C522.642 621.06 522.642 614.557 519.267 609.685L517.614 607.707L467.067 557.163L517.693 506.608L519.346 504.63C522.721 499.758 522.721 493.256 519.346 488.384L517.693 486.405L515.715 484.752C510.843 481.377 504.341 481.377 499.469 484.752L497.49 486.405L446.867 536.963L396.312 486.404ZM289.714 57.1429C259.59 57.1429 234.91 80.4536 232.728 110.021L232.571 114.286H346.857L346.7 110.021C344.519 80.4536 319.839 57.1429 289.714 57.1429Z" fill="#CCCCCC"/>
</svg>
