<svg width="75" height="72" viewBox="0 0 75 72" fill="none" xmlns="http://www.w3.org/2000/svg">
<path fill-rule="evenodd" clip-rule="evenodd" d="M33.3772 1.38566C30.9283 1.27787 28.8207 3.96982 28.6698 7.3983C28.5191 10.823 32.1782 14.9671 32.1782 14.9671C32.1782 14.9671 37.9347 14.9209 40.3382 12.4768C42.7445 10.0299 43.2783 6.65299 41.5305 4.93425C40.4304 3.85244 38.6887 3.68539 36.9488 4.32028C36.9488 4.32028 34.9185 1.4535 33.3772 1.38566Z" stroke="#3A7CA5" stroke-width="2.5402" stroke-linecap="round" stroke-linejoin="round"/>
<path d="M32.043 57.3391C34.0599 60.1031 36.816 62.3839 40.1801 63.848C50.2721 68.2404 62.0139 63.6199 66.4063 53.5279C70.7986 43.4359 66.1782 31.694 56.0862 27.3017C45.9942 22.9093 34.2523 27.5298 29.8599 37.6218C28.2549 41.3096 27.8533 45.2176 28.4824 48.9069" stroke="#3A7CA5" stroke-width="3.56427" stroke-linecap="round" stroke-linejoin="round"/>
<path d="M37.5787 23.5234C35.9586 21.8139 33.9752 20.395 31.6795 19.3958C22.5336 15.4152 11.8925 19.6025 7.91193 28.7484C3.93136 37.8943 8.11867 48.5354 17.2645 52.5159C26.4104 56.4965 37.0515 52.3092 41.0321 43.1633C42.6826 39.371 42.9288 35.3216 41.9995 31.5966" stroke="#3A7CA5" stroke-width="3.56427" stroke-linecap="round" stroke-linejoin="round"/>
</svg>
