<svg width="2603" height="403" viewBox="0 0 2603 403" fill="none" xmlns="http://www.w3.org/2000/svg">
<path d="M353.04 320V95.04H507.92V133.44H396.56V186.56H498.32V223.68H396.56V281.6H509.52V320H353.04Z" fill="#EF4B00"/>
<path d="M606.765 320L518.125 95.04H565.165L624.365 253.12L684.525 95.04H730.925L641.325 320H606.765ZM753.99 320V95.04H908.87V133.44H797.51V186.56H899.27V223.68H797.51V281.6H910.47V320H753.99ZM940.09 320V95.04H1028.09C1071.61 95.04 1101.05 122.56 1101.05 160.64C1101.05 196.16 1077.37 220.48 1040.57 225.28L1115.77 320H1062.97L990.97 225.92H983.61V320H940.09ZM1024.25 130.56H983.61V192H1024.25C1045.69 192 1057.85 180.48 1057.85 161.28C1057.85 144 1045.69 130.56 1024.25 130.56ZM1134 320V95.04H1164.72L1246.96 226.88L1329.2 95.04H1359.92V320H1316.72V185.92L1261.68 273.92H1232.24L1177.52 185.6V320H1134ZM1504.76 323.52C1439.16 323.52 1387.96 272 1387.96 207.04C1387.96 142.08 1438.52 91.52 1504.12 91.52C1569.72 91.52 1620.92 142.08 1620.92 207.36C1620.92 272.32 1570.04 323.52 1504.76 323.52ZM1504.12 282.88C1547 282.88 1576.12 252.16 1576.12 207.04C1576.12 162.56 1546.68 131.84 1504.12 131.84C1461.56 131.84 1432.44 162.56 1432.44 207.04C1432.44 252.16 1461.56 282.88 1504.12 282.88ZM1649.01 320V95.04H1679.73L1761.97 226.88L1844.21 95.04H1874.93V320H1831.73V185.92L1776.69 273.92H1747.25L1692.53 185.6V320H1649.01ZM1914.49 320V95.04H2069.37V133.44H1958.01V186.56H2059.77V223.68H1958.01V281.6H2070.97V320H1914.49ZM2100.59 320V95.04H2130.99L2243.63 240.96V95.04H2287.47V320H2256.11L2144.11 175.04V320H2100.59ZM2382.37 320V133.76H2310.69V95.04H2497.89V133.76H2426.21V320H2382.37Z" fill="white"/>
<rect y="59" width="80" height="64" fill="white"/>
<rect y="138" width="80" height="64" fill="white"/>
<rect y="217" width="80" height="142" fill="white"/>
<rect x="95" y="59" width="80" height="64" fill="white"/>
<rect x="95" y="138" width="80" height="142" fill="white"/>
<rect x="95" y="295" width="80" height="64" fill="white"/>
<rect x="190" y="59" width="80" height="142" fill="white"/>
<rect x="190" y="216" width="80" height="64" fill="white"/>
<rect x="190" y="295" width="80" height="64" fill="white"/>
</svg>
