<svg width="2609" height="418" viewBox="0 0 2609 418" fill="none" xmlns="http://www.w3.org/2000/svg">
<path d="M359.904 332V98.604H405.056V332H359.904ZM393.104 332V292.16H522.252V332H393.104ZM393.104 232.068V193.556H510.632V232.068H393.104ZM393.104 138.444V98.604H520.592V138.444H393.104Z" fill="#FE5000"/>
<path d="M623.144 332L531.18 98.604H579.984L651.032 287.512H632.108L703.82 98.604H751.96L659 332H623.144ZM775.89 332V98.604H821.042V332H775.89ZM809.09 332V292.16H938.238V332H809.09ZM809.09 232.068V193.556H926.618V232.068H809.09ZM809.09 138.444V98.604H936.578V138.444H809.09ZM1002.17 234.392V199.2H1056.28C1067.35 199.2 1075.87 196.433 1081.85 190.9C1088.05 185.145 1091.14 177.288 1091.14 167.328C1091.14 158.253 1088.05 150.728 1081.85 144.752C1075.87 138.555 1067.35 135.456 1056.28 135.456H1002.17V98.604H1060.27C1075.32 98.604 1088.49 101.592 1099.78 107.568C1111.29 113.323 1120.14 121.291 1126.34 131.472C1132.76 141.653 1135.96 153.384 1135.96 166.664C1135.96 180.387 1132.76 192.339 1126.34 202.52C1120.14 212.48 1111.29 220.337 1099.78 226.092C1088.27 231.625 1074.88 234.392 1059.6 234.392H1002.17ZM968.968 332V98.604H1014.12V332H968.968ZM1096.46 332L1019.43 231.072L1060.93 218.124L1151.24 332H1096.46ZM1170.15 332V98.604H1202.02L1296.64 249.996H1278.38L1372.67 98.604H1404.54V332H1359.72V175.96L1368.36 178.616L1302.62 284.192H1272.08L1206.34 178.616L1215.3 175.96V332H1170.15ZM1554.81 335.652C1537.77 335.652 1521.83 332.553 1507 326.356C1492.39 320.159 1479.56 311.637 1468.49 300.792C1457.65 289.725 1449.12 276.888 1442.93 262.28C1436.73 247.451 1433.63 231.625 1433.63 214.804C1433.63 197.983 1436.62 182.379 1442.59 167.992C1448.79 153.384 1457.31 140.657 1468.16 129.812C1479.23 118.745 1492.06 110.224 1506.67 104.248C1521.28 98.0507 1537.1 94.952 1554.15 94.952C1571.41 94.952 1587.35 98.0507 1601.95 104.248C1616.56 110.224 1629.29 118.745 1640.13 129.812C1651.2 140.657 1659.83 153.384 1666.03 167.992C1672.23 182.6 1675.33 198.315 1675.33 215.136C1675.33 231.957 1672.23 247.672 1666.03 262.28C1659.83 276.888 1651.2 289.725 1640.13 300.792C1629.29 311.637 1616.56 320.159 1601.95 326.356C1587.57 332.553 1571.85 335.652 1554.81 335.652ZM1554.15 293.488C1569.2 293.488 1582.26 290.168 1593.32 283.528C1604.39 276.888 1613.02 267.703 1619.22 255.972C1625.64 244.241 1628.85 230.519 1628.85 214.804C1628.85 203.295 1627.08 192.781 1623.53 183.264C1619.99 173.747 1614.9 165.557 1608.26 158.696C1601.62 151.613 1593.77 146.191 1584.69 142.428C1575.62 138.665 1565.43 136.784 1554.15 136.784C1539.54 136.784 1526.59 140.104 1515.3 146.744C1504.24 153.163 1495.49 162.237 1489.07 173.968C1482.88 185.699 1479.78 199.311 1479.78 214.804C1479.78 226.535 1481.55 237.269 1485.09 247.008C1488.85 256.747 1493.94 265.047 1500.36 271.908C1507 278.769 1514.86 284.081 1523.93 287.844C1533.23 291.607 1543.3 293.488 1554.15 293.488ZM1704.48 332V98.604H1736.35L1830.97 249.996H1812.71L1907 98.604H1938.87V332H1894.05V175.96L1902.68 178.616L1836.95 284.192H1806.4L1740.67 178.616L1749.63 175.96V332H1704.48ZM1979.91 332V98.604H2025.06V332H1979.91ZM2013.11 332V292.16H2142.26V332H2013.11ZM2013.11 232.068V193.556H2130.64V232.068H2013.11ZM2013.11 138.444V98.604H2140.6V138.444H2013.11ZM2172.99 332V98.604H2204.53L2218.14 143.756V332H2172.99ZM2334.34 332L2195.9 152.72L2204.53 98.604L2342.97 277.884L2334.34 332ZM2334.34 332L2321.39 288.176V98.604H2366.88V332H2334.34ZM2465.33 332V103.584H2510.82V332H2465.33ZM2390.97 138.776V98.604H2585.19V138.776H2390.97Z" fill="black"/>
<rect y="59" width="80" height="64" fill="black"/>
<rect y="138" width="80" height="64" fill="black"/>
<rect y="217" width="80" height="142" fill="black"/>
<rect x="95" y="59" width="80" height="64" fill="black"/>
<rect x="95" y="138" width="80" height="142" fill="black"/>
<rect x="95" y="295" width="80" height="64" fill="black"/>
<rect x="190" y="59" width="80" height="142" fill="black"/>
<rect x="190" y="216" width="80" height="64" fill="black"/>
<rect x="190" y="295" width="80" height="64" fill="black"/>
</svg>
