<svg width="2432" height="314" viewBox="0 0 2432 314" fill="none" xmlns="http://www.w3.org/2000/svg">
<rect y="0.5" width="83.4667" height="66.7733" fill="white"/>
<rect y="82.9219" width="83.4667" height="66.7733" fill="white"/>
<rect y="165.348" width="83.4667" height="148.153" fill="white"/>
<rect x="99.1167" y="0.5" width="83.4667" height="66.7733" fill="white"/>
<rect x="99.1167" y="82.9219" width="83.4667" height="148.153" fill="white"/>
<rect x="99.1167" y="246.727" width="83.4667" height="66.7733" fill="white"/>
<rect x="198.233" y="0.5" width="83.4667" height="148.153" fill="white"/>
<rect x="198.233" y="164.305" width="83.4667" height="66.7733" fill="white"/>
<rect x="198.233" y="246.727" width="83.4667" height="66.7733" fill="white"/>
<path d="M375.8 262V52H515.6V83.5H410.3V139.6H506.9V169.9H410.3V230.5H517.1V262H375.8Z" fill="#EF4B00"/>
<path d="M614.952 262L530.052 52H567.552L627.252 205.3L687.552 52H724.452L638.952 262H614.952ZM751.538 262V52H891.338V83.5H786.038V139.6H882.638V169.9H786.038V230.5H892.838V262H751.538ZM925.491 262V52H1004.09C1043.69 52 1070.39 77.8 1070.39 112.6C1070.39 147.1 1046.69 170.2 1010.39 172.6L1084.19 262H1040.69L968.991 172.9H959.991V262H925.491ZM1002.59 82H959.991V144.4H1002.29C1023.59 144.4 1035.89 132.7 1035.89 113.2C1035.89 95.8 1023.59 82 1002.59 82ZM1106.77 262V52H1130.77L1210.27 182.8L1289.77 52H1313.77V262H1279.27V127.6L1222.27 221.2H1198.27L1141.27 127.6V262H1106.77ZM1452.91 265C1393.21 265 1345.51 216.7 1345.51 156.7C1345.51 96.7 1392.61 49 1452.31 49C1512.01 49 1559.41 96.7 1559.41 157C1559.41 217 1512.31 265 1452.91 265ZM1452.31 232C1494.61 232 1524.01 201.1 1524.01 156.7C1524.01 112.9 1494.31 82 1452.31 82C1410.31 82 1380.91 112.6 1380.91 156.7C1380.91 201.1 1410.31 232 1452.31 232ZM1591.49 262V52H1615.49L1694.99 182.8L1774.49 52H1798.49V262H1763.99V127.6L1706.99 221.2H1682.99L1625.99 127.6V262H1591.49ZM1841.03 262V52H1980.83V83.5H1875.53V139.6H1972.13V169.9H1875.53V230.5H1982.33V262H1841.03ZM2014.98 262V52H2038.98L2149.98 196.9V52H2184.48V262H2160.48L2049.48 117.1V262H2014.98ZM2279.82 262V83.5H2211.42V52H2382.72V83.5H2314.32V262H2279.82Z" fill="white"/>
</svg>
