<svg width="1137" height="621" viewBox="0 0 1137 621" fill="none" xmlns="http://www.w3.org/2000/svg">
<rect y="31.666" width="148.533" height="118.827" fill="black"/>
<rect y="178.342" width="148.533" height="118.827" fill="black"/>
<rect y="325.02" width="148.533" height="263.647" fill="black"/>
<rect x="184.533" y="31.666" width="148.533" height="118.827" fill="black"/>
<rect x="184.533" y="178.342" width="148.533" height="263.647" fill="black"/>
<rect x="184.533" y="469.84" width="148.533" height="118.827" fill="black"/>
<path d="M822.946 258.665L782.77 244.729L791.702 218.977C806.923 175.096 779.527 125.598 730.631 108.637C681.735 91.6768 629.572 113.578 614.351 157.459L605.419 183.211L565.242 169.275L574.175 143.523C596.292 79.761 672.088 47.9367 743.138 72.5815C814.187 97.2264 853.996 169.151 831.879 232.913L822.946 258.665Z" fill="#EF4B00"/>
<path d="M853.107 314.42C832.951 280.1 790.874 256.133 749.234 255.258C718.059 254.599 688.298 266.911 668.681 287.231C665.86 259.128 650.114 231.031 625.227 212.244C591.989 187.145 544.108 179.91 507.03 194.377C470.198 208.751 444.007 241.8 439.547 278.524C426.882 382.779 518.249 496.437 578.314 547.752C657.251 544.652 799.374 511.985 853.991 422.281C873.23 390.684 873.126 348.514 853.107 314.42ZM643.127 399.596L634.521 434.818C633.875 437.453 630.878 438.864 628.028 437.876L607.318 430.692C604.468 429.704 602.989 426.739 604.113 424.27L619.166 391.285C610.667 383.769 606.893 372.395 610.51 361.968C615.458 347.703 632.36 340.611 648.253 346.123C664.146 351.636 673.025 367.671 668.077 381.936C664.461 392.364 654.455 398.958 643.127 399.596Z" fill="#EF4B00"/>
<rect x="598.317" y="309.869" width="100.193" height="122.097" transform="rotate(19.1301 598.317 309.869)" fill="#EF4B00"/>
<ellipse cx="641.923" cy="362.468" rx="37.3423" ry="33.5123" transform="rotate(19.1301 641.923 362.468)" fill="white"/>
<path d="M619.023 385.124C620.34 382.717 623.203 381.612 625.796 382.512L643.352 388.602C645.945 389.501 647.509 392.141 647.052 394.847L635.532 463.105C634.953 466.533 631.432 468.619 628.148 467.48L588.89 453.862C585.605 452.723 584.133 448.905 585.801 445.855L619.023 385.124Z" fill="white"/>
<rect x="988.384" y="31.666" width="148.533" height="263.647" fill="black"/>
<rect x="988.384" y="323.162" width="148.533" height="118.827" fill="black"/>
<rect x="988.384" y="469.84" width="148.533" height="118.827" fill="black"/>
</svg>
