<svg width="1022" height="557" viewBox="0 0 1022 557" fill="none" xmlns="http://www.w3.org/2000/svg">
<rect width="148.533" height="118.827" fill="black"/>
<rect y="146.676" width="148.533" height="118.827" fill="black"/>
<rect y="293.354" width="148.533" height="263.647" fill="black"/>
<rect x="184.533" width="148.533" height="118.827" fill="black"/>
<rect x="184.533" y="146.676" width="148.533" height="263.647" fill="black"/>
<rect x="184.533" y="438.174" width="148.533" height="118.827" fill="black"/>
<path d="M747.162 170.925H702.233V142.126C702.233 93.054 657.747 53.1315 603.068 53.1315C548.388 53.1315 503.903 93.0543 503.903 142.126V170.924H458.974V142.126C458.974 70.8211 523.614 12.8105 603.068 12.8105C682.522 12.8105 747.162 70.8211 747.162 142.126V170.925Z" fill="#EF4B00"/>
<path d="M796.573 216.136C764.571 188.857 714.271 179.502 672.403 193.046C641.056 203.182 615.613 225.776 603.067 252.852C590.521 225.776 565.074 203.182 533.727 193.046C491.859 179.501 441.56 188.857 409.558 216.136C377.77 243.237 363.068 285.295 371.332 323.496C394.788 431.948 525.343 513.766 603.067 544.191C680.788 513.765 811.342 431.948 834.801 323.496C843.065 285.295 828.361 243.237 796.573 216.136ZM616.464 373.862L620.069 411.999C620.337 414.853 617.833 417.3 614.647 417.3H591.486C588.3 417.3 585.797 414.853 586.064 411.999L589.67 373.862C578.583 369.303 570.878 359.256 570.878 347.595C570.878 331.642 585.294 318.711 603.066 318.711C620.839 318.711 635.255 331.642 635.255 347.595C635.255 359.256 627.551 369.303 616.464 373.862Z" fill="#EF4B00"/>
<rect x="540.668" y="299.811" width="105.857" height="129" fill="#EF4B00"/>
<ellipse cx="602.407" cy="337.218" rx="39.4535" ry="35.407" fill="white"/>
<path d="M587.438 367.498C587.893 364.792 590.236 362.811 592.98 362.811H613.151C615.895 362.811 618.238 364.792 618.694 367.498L630.935 440.258C631.512 443.686 628.869 446.811 625.393 446.811H580.739C577.263 446.811 574.62 443.686 575.197 440.258L587.438 367.498Z" fill="white"/>
<rect x="873.067" width="148.533" height="263.647" fill="black"/>
<rect x="873.067" y="291.496" width="148.533" height="118.827" fill="black"/>
<rect x="873.067" y="438.174" width="148.533" height="118.827" fill="black"/>
</svg>
